<?xml version="1.0" encoding="utf-8"?>
<!-- Generator: Adobe Illustrator 25.0.0, SVG Export Plug-In . SVG Version: 6.00 Build 0)  -->
<svg version="1.1" id="Layer_1" xmlns="http://www.w3.org/2000/svg" xmlns:xlink="http://www.w3.org/1999/xlink" x="0px" y="0px"
	 viewBox="0 0 200 40" style="enable-background:new 0 0 200 40;" xml:space="preserve">
<style type="text/css">
	.st0{fill-rule:evenodd;clip-rule:evenodd;fill:#D42927;}
	.st1{fill-rule:evenodd;clip-rule:evenodd;fill:url(#SVGID_1_);}
	.st2{fill-rule:evenodd;clip-rule:evenodd;fill:url(#SVGID_2_);}
	.st3{fill-rule:evenodd;clip-rule:evenodd;fill:#010101;}
	.st4{fill-rule:evenodd;clip-rule:evenodd;fill:url(#SVGID_3_);}
	.st5{fill-rule:evenodd;clip-rule:evenodd;fill:url(#SVGID_4_);}
	.st6{fill-rule:evenodd;clip-rule:evenodd;fill:url(#SVGID_5_);}
	.st7{fill-rule:evenodd;clip-rule:evenodd;fill:#952A22;}
	.st8{fill-rule:evenodd;clip-rule:evenodd;fill:url(#SVGID_6_);}
	.st9{fill-rule:evenodd;clip-rule:evenodd;fill:url(#SVGID_7_);}
</style>
<g>
	<path class="st0" d="M198.19,38.98V11.18l-4.54,0c-0.15,0.08-0.14,0.12-0.21,0.27c-1.52,2.96-3.26,6.03-4.8,9
		c-0.82,1.58-1.66,3.08-2.48,4.65l-1.85,3.47c-0.2,0.37-0.44,0.79-0.61,1.16c-0.14-0.13-0.25-0.4-0.35-0.59
		c-0.1-0.21-0.21-0.37-0.31-0.57l-1.85-3.48c-0.8-1.57-1.66-3.06-2.46-4.62c-1.36-2.66-2.92-5.44-4.33-8.12
		c-0.19-0.36-0.46-0.8-0.61-1.17l-4.62,0.02l0,27.78l4.36,0l0.01-18.72l3.8,6.84c1.2,2.26,2.55,4.58,3.8,6.85
		c0.69,1.26,1.84,3.44,2.53,4.56c0.28-0.4,0.98-1.74,1.28-2.26l3.78-6.82c1.24-2.3,2.55-4.56,3.79-6.86l0.94-1.7
		c0.05-0.1,0.25-0.51,0.35-0.56l0,18.67L198.19,38.98L198.19,38.98z M150.13,14.75c3.94-0.41,7.98,1.95,9.75,5.44
		c0.61,1.19,1.02,2.43,1.13,3.98c0.41,5.88-4,10.43-9.35,10.9c-1.55,0.14-3.11-0.14-4.39-0.64c-2.26-0.87-4.32-2.64-5.39-4.8
		c-1.79-3.63-1.51-7.66,0.88-10.83c0.18-0.25,0.37-0.45,0.56-0.69c0.15-0.18,0.45-0.49,0.64-0.66c0.2-0.19,0.44-0.39,0.68-0.57
		C146.26,15.61,147.94,14.98,150.13,14.75L150.13,14.75z M136.37,25.92c0.37,4.47,2.48,7.74,4.75,9.78c2.5,2.23,6.06,4.04,10.8,3.74
		c2.18-0.14,3.96-0.77,5.66-1.61c1.73-0.86,3.04-2.04,4.09-3.18c2.13-2.32,4.08-6.25,3.71-10.75c-0.5-6-4.32-10.71-9.24-12.58
		c-3.97-1.51-8.18-1.31-11.97,0.65c-0.84,0.43-1.55,0.91-2.23,1.43c-0.76,0.59-1.26,1.1-1.87,1.74
		C137.97,17.39,136.01,21.48,136.37,25.92L136.37,25.92z M80.82,14.74c1.68-0.09,3.97-0.01,5.54,0.29C91.45,16.01,94,19.15,94,25
		c0,5.8-2.62,9.03-7.66,9.95c-1.43,0.26-4.11,0.41-5.54,0.27L80.82,14.74L80.82,14.74z M82.97,39.45c4.22,0,8.31-1.03,11.41-3.59
		c1.34-1.11,2.41-2.76,3.08-4.42c0.76-1.84,1.12-4.08,1.13-6.34c0.01-5.32-1.66-9.75-6.21-12.38c-1.94-1.12-4.51-1.82-7.1-2.06
		c-1.75-0.16-7.14-0.18-9.02-0.13l0,28.93L82.97,39.45L82.97,39.45z M133.32,17.59c-0.38-0.13-2.65-2.83-7.1-2.83
		c-5.54,0-10.14,4.56-10.14,10.05l0,0.23c0,7.91,9.08,12.85,15.8,8.3l1.38-1.08l3.08,3.05c-0.59,0.71-2.28,1.85-3.07,2.3
		c-3.89,2.24-9.06,2.41-12.98,0.58c-2.6-1.21-4.48-2.85-5.87-4.82c-1.4-1.98-2.7-4.9-2.7-8.04v-0.83c0-3.09,1.32-6.06,2.69-8
		c4.6-6.52,13.77-8.15,20.47-3.21c0.28,0.21,1.31,1.03,1.44,1.26c-0.13,0.2-0.53,0.57-0.72,0.77
		C135.1,15.82,133.65,17.2,133.32,17.59L133.32,17.59z M59.73,39.44c3.03,0.14,6.56-0.43,8.72-1.74c1.13-0.69,1.96-1.48,2.64-2.59
		c1.7-2.77,1.46-5.75,1.46-8.95V10.53l-4.72,0.01c-0.06,2.71,0,5.49,0,8.21c0,2.73,0,5.46,0,8.2c0,1.33,0.02,2.68-0.16,3.95
		c-0.19,1.35-0.58,2.06-1.35,2.73c-1.55,1.36-4.05,1.57-6.59,1.62L59.73,39.44L59.73,39.44z M102.42,36.11
		c0.2,1.39,1.5,2.59,3.19,2.36c1.39-0.19,2.58-1.51,2.35-3.18c-0.2-1.4-1.51-2.6-3.17-2.36C103.41,33.13,102.18,34.43,102.42,36.11z
		"/>
	<g>
		<linearGradient id="SVGID_1_" gradientUnits="userSpaceOnUse" x1="24.2164" y1="32.885" x2="26.4148" y2="33.1316">
			<stop  offset="0" style="stop-color:#D9D8D8"/>
			<stop  offset="1" style="stop-color:#BEBDC0"/>
		</linearGradient>
		<path class="st1" d="M26.92,34.71c0.24-0.63,0.49-1.25,0.73-1.88c-2.81,1.39-3.66,0.22-3.96-1.68
			C23.09,33.57,24.61,35.07,26.92,34.71z"/>
		<linearGradient id="SVGID_2_" gradientUnits="userSpaceOnUse" x1="34.7432" y1="2.7909" x2="24.9608" y2="28.9499">
			<stop  offset="0" style="stop-color:#FFFFFF"/>
			<stop  offset="1" style="stop-color:#CECCCE"/>
		</linearGradient>
		<path class="st2" d="M50.03,2.79c-6.35-3.55-19.1-2.06-27.21,1.09c-4.13,1.5-7.66,3.39-10.21,5.9c-2.23,2.24-2.24,4.73-0.21,7.43
			c3.33,3.91,9.52,7.86,17.91,9.51c-0.08,0.34-0.17,0.68-0.25,1.02c-2.4,4.07-4.79,8.14-7.19,12.22c0.36,0,0.72,0,1.08,0
			c1.91-2.39,3.59-4.08,4.9-4.66c0,1.71-0.02,3.37-0.21,4.66c0.47,0,0.95,0,1.42,0c0.34-1.79,0.8-3.28,1.46-4.28
			c0.64-0.98,1.56-1.18,2.11,0c0.53,1.24,0.88,2.63,1.01,4.28c0.52,0,0.93-0.02,1.45-0.02c-0.03-4.18,0.04-8.34,0.01-12.52
			c0-0.32,0-0.65,0-0.97c4.24-0.92,8.47-3.2,12.71-9.03C52.2,12.32,53.96,4.69,50.03,2.79z"/>
		<path class="st3" d="M49.35,16.57c0.41-0.69,0.79-1.41,1.13-2.14c-2.37,1.78-5.8,2.63-9.31,2.47c-4.31-0.2-8.73-1.91-11.45-4.96
			c-0.89-1-1.76-0.33-1.01,0.69C32.9,17.64,41.82,19.88,49.35,16.57z"/>
		<linearGradient id="SVGID_3_" gradientUnits="userSpaceOnUse" x1="28.1291" y1="34.9977" x2="25.5087" y2="38.4365">
			<stop  offset="0" style="stop-color:#A8A7AB"/>
			<stop  offset="1" style="stop-color:#FFFFFF"/>
		</linearGradient>
		<path class="st4" d="M24.89,38.82c1.52-1.78,2.87-3.03,3.96-3.52c0.04-0.66-0.1-1.14-0.34-1.54c-0.11-0.23-0.37-0.08-0.48,0.16
			L24.89,38.82z"/>
		<linearGradient id="SVGID_4_" gradientUnits="userSpaceOnUse" x1="33.8382" y1="31.8565" x2="32.2075" y2="43.8144">
			<stop  offset="0" style="stop-color:#929497"/>
			<stop  offset="1" style="stop-color:#FFFFFF"/>
		</linearGradient>
		<path class="st5" d="M30.19,39.31c0.32-1.5,0.75-2.75,1.33-3.63c0.64-0.98,1.56-1.18,2.11,0c0.53,1.24,0.88,2.63,1.01,4.28
			c0.26,0,0.49-0.01,0.73-0.01c-0.17-3.83-0.92-6.33-2.41-6.42C31.89,33.6,30.61,36.29,30.19,39.31L30.19,39.31z"/>
		<path class="st3" d="M29.65,8.33c0.8,0,1.45-0.6,1.45-1.33s-0.65-1.33-1.45-1.33S28.2,6.27,28.2,7S28.86,8.33,29.65,8.33z"/>
		<linearGradient id="SVGID_5_" gradientUnits="userSpaceOnUse" x1="45.6605" y1="4.2905" x2="46.5716" y2="-2.7135">
			<stop  offset="0" style="stop-color:#231F20"/>
			<stop  offset="1" style="stop-color:#FFFFFF"/>
		</linearGradient>
		<path class="st6" d="M45.68,1.95c2.34-0.13,4.26,0.64,4.29,1.45c0.11,1.39-1.85,1.79-4.19,1.93c-2.34,0.13-4.26-0.52-4.29-1.45
			C41.47,2.95,43.34,2.08,45.68,1.95z"/>
		<path class="st7" d="M30.06,27.75c0.08-0.34,0.17-0.68,0.25-1.02c2.28,0.24,4.3,0.22,5.8-0.28c0,0.32,0,0.65,0,0.97
			C34.79,28.28,32.52,28.12,30.06,27.75z"/>
		<linearGradient id="SVGID_6_" gradientUnits="userSpaceOnUse" x1="8.5073" y1="13.4781" x2="2.6289" y2="23.9637">
			<stop  offset="0" style="stop-color:#EFEFF1"/>
			<stop  offset="1" style="stop-color:#D8D8D9"/>
		</linearGradient>
		<path class="st8" d="M12.34,13.44c-0.08-0.89-0.32-1.72-0.66-2.52c-1.17-0.62-2.34-1.24-3.51-1.86C6.89,8.44,5.55,9.35,5.39,10.7
			c-0.78,4.64-2.48,5.84-3.54,9c-0.54,1.63-0.23,2.69,0.52,3.23c0.82,0.56,1.24,0.8,3.3,0c3.97-1.64,5.74-3.87,4.65-9.31
			c0.43,0.25,0.86,0.51,1.28,0.76C12.11,14.65,12.41,14.47,12.34,13.44z"/>
		<linearGradient id="SVGID_7_" gradientUnits="userSpaceOnUse" x1="9.7144" y1="13.2871" x2="5.2538" y2="22.0222">
			<stop  offset="0" style="stop-color:#A8A7AB"/>
			<stop  offset="1" style="stop-color:#D4D3D2"/>
		</linearGradient>
		<path class="st9" d="M3.35,23.41c0.49,0.09,1.13-0.03,2.31-0.48c3.97-1.64,5.74-3.87,4.65-9.31c-1-0.8-2-1.6-3-2.4
			C6.51,16,5.36,20.3,3.35,23.41z"/>
	</g>
</g>
</svg>
